<svg width="380" height="160" viewBox="0 0 380 160" fill="none" xmlns="http://www.w3.org/2000/svg">
<rect y="1" width="380" height="159" rx="79.5" fill="url(#paint0_linear_60_61)"/>
<path fill-rule="evenodd" clip-rule="evenodd" d="M80.5 0C36.5934 0 1 35.5934 1 79.5C1 123.407 36.5934 159 80.5 159H206.5C162.593 159 127 123.407 127 79.5C127 35.5934 162.593 0 206.5 0H80.5Z" fill="#454545"/>
<path d="M177.125 92H165.781V60H177.219C180.438 60 183.208 60.6406 185.531 61.9219C187.854 63.1927 189.641 65.0208 190.891 67.4062C192.151 69.7917 192.781 72.6458 192.781 75.9687C192.781 79.3021 192.151 82.1667 190.891 84.5625C189.641 86.9583 187.844 88.7969 185.5 90.0781C183.167 91.3594 180.375 92 177.125 92ZM172.547 86.2031H176.844C178.844 86.2031 180.526 85.849 181.891 85.1406C183.266 84.4219 184.297 83.3125 184.984 81.8125C185.682 80.3021 186.031 78.3542 186.031 75.9687C186.031 73.6042 185.682 71.6719 184.984 70.1719C184.297 68.6719 183.271 67.5677 181.906 66.8594C180.542 66.151 178.859 65.7969 176.859 65.7969H172.547V86.2031ZM208.512 92.4688C206.085 92.4688 203.986 91.9531 202.215 90.9219C200.454 89.8802 199.095 88.4323 198.137 86.5781C197.178 84.7135 196.699 82.5521 196.699 80.0937C196.699 77.6146 197.178 75.4479 198.137 73.5937C199.095 71.7292 200.454 70.2812 202.215 69.25C203.986 68.2083 206.085 67.6875 208.512 67.6875C210.939 67.6875 213.033 68.2083 214.793 69.25C216.564 70.2812 217.928 71.7292 218.887 73.5937C219.845 75.4479 220.324 77.6146 220.324 80.0937C220.324 82.5521 219.845 84.7135 218.887 86.5781C217.928 88.4323 216.564 89.8802 214.793 90.9219C213.033 91.9531 210.939 92.4688 208.512 92.4688ZM208.543 87.3125C209.647 87.3125 210.569 87 211.309 86.375C212.048 85.7396 212.605 84.875 212.98 83.7812C213.366 82.6875 213.559 81.4427 213.559 80.0469C213.559 78.651 213.366 77.4063 212.98 76.3125C212.605 75.2187 212.048 74.3542 211.309 73.7187C210.569 73.0833 209.647 72.7656 208.543 72.7656C207.428 72.7656 206.491 73.0833 205.73 73.7187C204.98 74.3542 204.413 75.2187 204.027 76.3125C203.652 77.4063 203.465 78.651 203.465 80.0469C203.465 81.4427 203.652 82.6875 204.027 83.7812C204.413 84.875 204.98 85.7396 205.73 86.375C206.491 87 207.428 87.3125 208.543 87.3125ZM231.309 78.125V92H224.652V68H230.996V72.2344H231.277C231.809 70.8385 232.699 69.7344 233.949 68.9219C235.199 68.099 236.715 67.6875 238.496 67.6875C240.163 67.6875 241.616 68.0521 242.855 68.7812C244.095 69.5104 245.059 70.5521 245.746 71.9062C246.434 73.25 246.777 74.8542 246.777 76.7187V92H240.121V77.9062C240.132 76.4375 239.757 75.2917 238.996 74.4688C238.236 73.6354 237.189 73.2187 235.855 73.2187C234.96 73.2187 234.168 73.4115 233.48 73.7969C232.803 74.1823 232.272 74.7448 231.887 75.4844C231.512 76.2135 231.319 77.0938 231.309 78.125ZM258.867 92.4531C257.336 92.4531 255.971 92.1875 254.773 91.6562C253.576 91.1146 252.628 90.3177 251.93 89.2656C251.242 88.2031 250.898 86.8802 250.898 85.2969C250.898 83.9635 251.143 82.8437 251.633 81.9375C252.122 81.0313 252.789 80.3021 253.633 79.75C254.477 79.1979 255.435 78.7812 256.508 78.5C257.591 78.2187 258.727 78.0208 259.914 77.9062C261.31 77.7604 262.435 77.625 263.289 77.5C264.143 77.3646 264.763 77.1667 265.148 76.9062C265.534 76.6458 265.727 76.2604 265.727 75.75V75.6562C265.727 74.6667 265.414 73.901 264.789 73.3594C264.174 72.8177 263.299 72.5469 262.164 72.5469C260.966 72.5469 260.013 72.8125 259.305 73.3437C258.596 73.8646 258.128 74.5208 257.898 75.3125L251.742 74.8125C252.055 73.3542 252.669 72.0937 253.586 71.0312C254.503 69.9583 255.685 69.1354 257.133 68.5625C258.591 67.9792 260.279 67.6875 262.195 67.6875C263.529 67.6875 264.805 67.8437 266.023 68.1562C267.253 68.4687 268.341 68.9531 269.289 69.6094C270.247 70.2656 271.003 71.1094 271.555 72.1406C272.107 73.1615 272.383 74.3854 272.383 75.8125V92H266.07V88.6719H265.883C265.497 89.4219 264.982 90.0833 264.336 90.6562C263.69 91.2187 262.914 91.6615 262.008 91.9844C261.102 92.2969 260.055 92.4531 258.867 92.4531ZM260.773 87.8594C261.753 87.8594 262.617 87.6667 263.367 87.2812C264.117 86.8854 264.706 86.3542 265.133 85.6875C265.56 85.0208 265.773 84.2656 265.773 83.4219V80.875C265.565 81.0104 265.279 81.1354 264.914 81.25C264.56 81.3542 264.159 81.4531 263.711 81.5469C263.263 81.6302 262.815 81.7083 262.367 81.7812C261.919 81.8437 261.513 81.901 261.148 81.9531C260.367 82.0677 259.685 82.25 259.102 82.5C258.518 82.75 258.065 83.0885 257.742 83.5156C257.419 83.9323 257.258 84.4531 257.258 85.0781C257.258 85.9844 257.586 86.6771 258.242 87.1562C258.909 87.625 259.753 87.8594 260.773 87.8594ZM290.312 68V73H275.859V68H290.312ZM279.141 62.25H285.797V84.625C285.797 85.2396 285.891 85.7187 286.078 86.0625C286.266 86.3958 286.526 86.6302 286.859 86.7656C287.203 86.901 287.599 86.9687 288.047 86.9687C288.359 86.9687 288.672 86.9427 288.984 86.8906C289.297 86.8281 289.536 86.7812 289.703 86.75L290.75 91.7031C290.417 91.8073 289.948 91.9271 289.344 92.0625C288.74 92.2083 288.005 92.2969 287.141 92.3281C285.536 92.3906 284.13 92.1771 282.922 91.6875C281.724 91.1979 280.792 90.4375 280.125 89.4062C279.458 88.375 279.13 87.0729 279.141 85.5V62.25ZM305.328 92.4688C302.859 92.4688 300.734 91.9688 298.953 90.9688C297.182 89.9583 295.818 88.5312 294.859 86.6875C293.901 84.8333 293.422 82.6406 293.422 80.1094C293.422 77.6406 293.901 75.474 294.859 73.6094C295.818 71.7448 297.167 70.2917 298.906 69.25C300.656 68.2083 302.708 67.6875 305.063 67.6875C306.646 67.6875 308.12 67.9427 309.484 68.4531C310.859 68.9531 312.057 69.7083 313.078 70.7187C314.109 71.7292 314.911 73 315.484 74.5312C316.057 76.0521 316.344 77.8333 316.344 79.875V81.7031H296.078V77.5781H310.078C310.078 76.6198 309.87 75.7708 309.453 75.0313C309.036 74.2917 308.458 73.7135 307.719 73.2969C306.99 72.8698 306.141 72.6562 305.172 72.6562C304.161 72.6562 303.266 72.8906 302.484 73.3594C301.714 73.8177 301.109 74.4375 300.672 75.2187C300.234 75.9896 300.01 76.849 300 77.7969V81.7187C300 82.9062 300.219 83.9323 300.656 84.7969C301.104 85.6615 301.734 86.3281 302.547 86.7969C303.359 87.2656 304.323 87.5 305.437 87.5C306.177 87.5 306.854 87.3958 307.469 87.1875C308.083 86.9792 308.609 86.6667 309.047 86.25C309.484 85.8333 309.818 85.3229 310.047 84.7188L316.203 85.125C315.891 86.6042 315.25 87.8958 314.281 89C313.323 90.0937 312.083 90.9479 310.563 91.5625C309.052 92.1667 307.307 92.4688 305.328 92.4688Z" fill="black"/>
<defs>
<linearGradient id="paint0_linear_60_61" x1="190" y1="1" x2="190" y2="160" gradientUnits="userSpaceOnUse">
<stop stop-color="#ED9EC5"/>
<stop offset="1" stop-color="#875A70"/>
</linearGradient>
</defs>
</svg>
